<?xml version="1.0" encoding="UTF-8"?>
<svg id="Layer_1" data-name="Layer 1" xmlns="http://www.w3.org/2000/svg" version="1.1" viewBox="0 0 256 256">
  <defs>
    <style>
      .cls-1 {
        fill: #ff0;
        stroke-width: 0px;
      }
    </style>
  </defs>
  <path class="cls-1" d="M135.6,12l32.4,65.6c1.3,2.5,3.7,4.3,6.5,4.7l72.4,10.5c7.1,1,9.9,9.7,4.8,14.7l-52.4,51.1c-2,2-3,4.8-2.5,7.6l12.4,72.1c1.2,7.1-6.2,12.4-12.5,9.1l-64.8-34.1c-2.5-1.3-5.5-1.3-8,0l-64.8,34.1c-6.3,3.3-13.7-2-12.5-9.1l12.4-72.1c.5-2.8-.4-5.7-2.5-7.6L4,107.6c-5.1-5-2.3-13.7,4.8-14.7l72.4-10.5c2.8-.4,5.2-2.2,6.5-4.7L120.1,12c3.2-6.4,12.3-6.4,15.5,0Z"/>
</svg>